<?xml version="1.0" encoding="UTF-8" standalone="no"?>
<svg
   xmlns:dc="http://purl.org/dc/elements/1.1/"
   xmlns:cc="http://creativecommons.org/ns#"
   xmlns:rdf="http://www.w3.org/1999/02/22-rdf-syntax-ns#"
   xmlns:svg="http://www.w3.org/2000/svg"
   xmlns="http://www.w3.org/2000/svg"
   id="svg6057"
   version="1.1"
   viewBox="0 0 210 297"
   height="297mm"
   width="210mm">
  <defs
     id="defs6051" />
  <metadata
     id="metadata6054">
    <rdf:RDF>
      <cc:Work
         rdf:about="">
        <dc:format>image/svg+xml</dc:format>
        <dc:type
           rdf:resource="http://purl.org/dc/dcmitype/StillImage" />
        <dc:title></dc:title>
      </cc:Work>
    </rdf:RDF>
  </metadata>
  <g
     id="layer1">
    <path
       id="path3763"
       d="m 37.491199,142.81209 -6.919309,-0.19477 -1.621588,-1.76389 c -0.911667,-0.99167 -1.721937,-2.26492 -1.850807,-2.90832 -0.36924,-1.84348 0.0361,-16.37687 0.48714,-17.46459 0.41221,-0.99418 1.230556,-1.22801 2.183594,-0.62393 0.44329,0.28098 0.529167,1.55395 0.529167,7.84391 0,7.24324 0.03003,7.56667 0.850108,9.1555 0.697487,1.35131 1.068137,1.6879 2.064521,1.87482 0.667926,0.12531 1.304023,0.13822 1.413548,0.0287 0.109526,-0.10951 -0.144821,-0.19912 -0.565214,-0.19912 -0.420394,0 -0.764352,-0.15058 -0.764352,-0.33461 0,-0.18403 -0.372831,-0.73689 -0.828513,-1.22858 -0.714754,-0.77123 -0.855328,-1.36709 -1.023808,-4.3397 -0.413575,-7.29695 0.110312,-20.97058 0.85896,-22.41915 0.210274,-0.40686 0.170516,-1.05639 -0.112587,-1.8393 -0.376779,-1.04196 -0.354836,-1.30183 0.157757,-1.86824 0.375246,-0.41464 0.595413,-1.25206 0.595413,-2.26469 0,-1.31009 -0.130279,-1.64084 -0.705556,-1.79128 -0.861623,-0.22532 -0.929339,-1.83648 -0.166216,-3.954728 0.605117,-1.679654 0.679747,-4.621511 0.125924,-4.963792 -0.432843,-0.26751 -0.22161,-20.975895 0.225549,-22.111903 0.153395,-0.389699 0.619367,-0.617361 1.263598,-0.617361 0.561324,0 1.02059,-0.132291 1.02059,-0.293981 0,-1.148888 -1.867127,-0.38013 -2.788955,1.148305 -0.606917,1.006297 -1.197805,5.014302 -1.070256,7.259565 0.09528,1.677255 0.06409,8.313102 -0.06657,14.162585 -0.116425,5.212284 -0.208282,5.957486 -0.817259,6.630112 -0.377819,0.417308 -1.011855,0.711198 -1.411111,0.654078 -0.718406,-0.10277 -0.724636,-0.2314 -0.682656,-14.109272 l 0.0424,-14.005551 1.241906,-1.869448 c 2.032859,-3.060065 2.405812,-3.281864 5.50137,-3.271729 5.211845,0.01707 6.686532,0.926598 4.280342,2.639956 -1.361277,0.969315 -1.029225,1.525559 0.732961,1.22784 0.749079,-0.126556 1.566224,-0.10028 1.81588,0.05839 0.249655,0.158672 6.90303,0.233892 14.785273,0.167157 8.272304,-0.07004 14.414426,0.01307 14.527837,0.196575 0.108064,0.174851 1.437703,0.246442 2.954756,0.159091 2.630413,-0.151458 9.81869,-0.360544 16.397724,-0.476961 3.035263,-0.05371 3.05572,-0.06016 2.99861,-0.945322 -0.0772,-1.196469 0.897882,-1.365607 1.868231,-0.324063 1.085778,1.165449 2.483072,3.77722 2.489385,4.653077 0.0041,0.570882 0.07965,0.632067 0.317177,0.256939 0.847569,-1.338558 2.323477,0.933207 2.630607,4.049093 0.094,0.954223 0.35854,2.587994 0.58777,3.630602 0.32328,1.470467 0.31925,2.657361 -0.018,5.291668 -0.62821,4.907632 -0.96928,6.111087 -1.690464,5.964746 -0.39974,-0.08111 -0.568547,-0.409874 -0.509487,-0.992241 0.259027,-2.554044 0.129217,-4.563592 -0.364998,-5.650306 -0.83381,-1.833453 -1.109697,-4.137838 -0.572833,-4.784718 0.364148,-0.438773 0.3649,-0.597285 0.0039,-0.8204 -0.246105,-0.152101 -0.410398,-0.735314 -0.365091,-1.296029 0.04532,-0.560716 0.04783,-1.892608 0.0056,-2.95976 l -0.0768,-1.940277 -0.487111,1.562852 c -0.267914,0.85957 -0.379701,1.732695 -0.24842,1.940278 0.131281,0.207584 0.274018,4.266799 0.317193,9.020479 0.04319,4.753682 0.147434,11.976807 0.231669,16.051394 0.08424,4.07458 0.03878,8.99583 -0.101028,10.93611 -0.196284,2.72421 -0.146913,3.65464 0.216752,4.08472 0.696068,0.8232 0.602766,3.03538 -0.146429,3.47174 -0.402653,0.23452 -0.452363,0.36331 -0.14293,0.37031 0.382,0.009 0.435869,0.85187 0.276505,4.32828 -0.113741,2.48121 -0.353039,4.36926 -0.562623,4.43912 -0.200586,0.0669 -0.364702,0.35583 -0.364702,0.64216 0,0.28632 0.15875,0.42247 0.352777,0.30255 0.212535,-0.13135 0.367152,0.38629 0.388927,1.3021 l 0.03615,1.52013 0.55794,-2.11667 c 0.348287,-1.32131 0.593297,-3.97248 0.652042,-7.05556 0.136581,-7.16783 0.275685,-9.46718 0.603853,-9.98142 0.163058,-0.25551 0.129935,-0.65083 -0.07524,-0.89805 -0.374375,-0.45109 -0.517541,-17.507338 -0.154885,-18.452406 0.276331,-0.720106 0.756198,-0.581271 1.701573,0.492299 0.77156,0.876176 0.83367,1.182439 0.64124,3.162117 -0.18456,1.89874 -0.0891,2.45384 0.71369,4.14931 1.25492,2.65044 1.55444,5.34298 0.76433,6.8709 -0.57138,1.1049 -0.58055,1.94349 -0.0354,3.23078 0.15256,0.36022 -0.10199,0.97504 -0.69593,1.6809 -0.63186,0.75092 -0.85303,1.31207 -0.67993,1.72509 0.14111,0.33669 0.31397,1.50874 0.38413,2.60457 0.099,1.54618 0.007,2.03882 -0.41241,2.19963 -0.44504,0.17077 -0.46553,0.34634 -0.11652,0.99847 0.4951,0.9251 0.46818,10.40551 -0.0333,11.72448 -0.17309,0.45525 -0.246,0.89643 -0.16204,0.9804 0.27187,0.27187 -0.962279,3.949 -1.649733,4.91534 -1.15112,1.61812 -3.834233,1.8358 -17.72172,1.43779 -11.069616,-0.31725 -19.102983,-0.31534 -32.155422,0.008 -2.716388,0.0672 -8.052577,0.0346 -11.858196,-0.0725 z m 58.772777,-0.99971 c 1.581309,-0.23438 1.837661,-0.40327 2.537333,-1.67164 1.06734,-1.93487 1.495791,-5.097 1.480811,-10.92898 -0.007,-2.71638 -0.0141,-6.1692 -0.0159,-7.67291 -0.002,-1.50372 -0.14782,-2.73403 -0.324605,-2.73403 -0.365112,0 -0.434695,1.11903 -0.47162,7.58472 -0.01439,2.52236 -0.121582,4.74486 -0.238168,4.93889 -0.11658,0.19403 -0.420047,1.36363 -0.674362,2.5991 -0.397459,1.93088 -0.726757,2.53187 -2.344983,4.27975 l -1.88259,2.03342 -3.087489,0.22345 c -1.69812,0.1229 -4.957977,0.40388 -7.244128,0.62441 -3.39517,0.3275 -4.319248,0.31393 -5.04427,-0.0741 -0.729771,-0.39056 -1.564127,-0.39982 -4.691592,-0.0521 -2.092182,0.23264 -4.505383,0.32994 -5.362676,0.21623 -0.857292,-0.1137 -1.955588,-0.045 -2.440656,0.15264 -0.960589,0.39142 2.01328,0.51516 13.648184,0.5679 3.334904,0.0151 6.142966,0.10698 6.240135,0.20414 0.246567,0.24657 7.781562,0.0255 9.916541,-0.29094 z m -34.243978,-0.0544 c 1.730079,-0.0124 3.038065,-0.13013 2.90663,-0.26156 -0.131431,-0.13143 -3.820178,-0.22001 -8.197217,-0.19683 -4.377036,0.0232 -8.281307,-0.0774 -8.676158,-0.22344 -0.394851,-0.14606 -1.59422,-0.10673 -2.665267,0.0874 -1.681559,0.3048 -2.006856,0.27161 -2.383255,-0.24315 -0.59695,-0.81637 -2.236204,-0.80034 -2.170999,0.0212 0.02695,0.33955 0.197063,0.72403 0.378033,0.85441 0.18097,0.13037 4.229096,0.18022 8.995834,0.11078 4.766738,-0.0694 10.082315,-0.13642 11.812399,-0.14885 z m -24.023241,-0.68829 c -0.190986,-0.73034 -2.773587,-1.39495 -5.849691,-1.50538 -1.956211,-0.0702 -2.396542,-0.46421 -2.350008,-2.10267 0.01866,-0.65687 -0.132405,-1.90868 -0.335691,-2.78181 -0.231386,-0.99382 -0.288111,-3.92925 -0.151682,-7.84931 0.189745,-5.45199 0.14887,-6.2618 -0.316063,-6.2618 -0.906677,0 -1.180807,3.11197 -1.061187,12.04644 l 0.0739,5.52005 1.499301,1.79376 1.499306,1.79377 3.582945,0.006 c 3.339332,0.006 3.571108,-0.0389 3.40886,-0.65938 z m 43.547723,-0.63502 c -0.337288,-0.0883 -0.972288,-0.0915 -1.411112,-0.007 -0.438822,0.0844 -0.162862,0.15662 0.613248,0.16054 0.77611,0.004 1.13515,-0.0651 0.797864,-0.15343 z m 1.67158,-0.48893 c 2.328333,0.0423 5.662083,-0.10031 7.408333,-0.31687 3.132463,-0.38848 3.19627,-0.41588 4.7625,-2.04494 0.873125,-0.90815 1.11125,-1.24532 0.529167,-0.74926 -0.879668,0.74966 -1.673246,0.97503 -4.700839,1.335 -2.279724,0.27104 -3.797557,0.30947 -4.056944,0.10271 -0.228756,-0.18234 -0.730554,-0.20294 -1.119994,-0.046 -1.288725,0.51944 -4.411155,0.38795 -4.634926,-0.19519 -0.268597,-0.69995 -1.794727,-0.67629 -2.509927,0.0389 -0.486003,0.48601 -1.208591,0.53769 -5.001885,0.35777 -2.542349,-0.12059 -5.637779,-0.0461 -7.256039,0.17448 -1.941923,0.26477 -6.013318,0.29071 -13.05278,0.0832 -10.813817,-0.31882 -18.327864,-0.16566 -17.517641,0.35708 0.260712,0.16821 2.880087,0.38893 5.820833,0.49049 2.940746,0.10156 5.664309,0.31745 6.052366,0.47975 0.388056,0.1623 7.531805,0.1963 15.874999,0.0756 8.343193,-0.12075 17.074443,-0.18495 19.402777,-0.14266 z m -12.523611,-2.50793 c 0.873125,-0.0307 2.841274,-0.0111 4.373658,0.0436 2.265638,0.0809 2.845602,-0.007 3.104335,-0.46912 0.174998,-0.3127 0.746853,-0.57166 1.270786,-0.57546 0.935657,-0.007 0.926126,-0.0291 -0.535199,-1.25443 -0.818295,-0.68614 -1.839717,-1.87366 -2.269823,-2.63893 -0.696201,-1.23872 -0.929111,-1.3914 -2.122594,-1.3914 -0.966721,0 -1.645896,-0.27279 -2.435346,-0.97817 -0.994328,-0.88843 -1.065843,-1.0907 -0.779571,-2.20486 0.237183,-0.92311 0.637698,-1.38016 1.618361,-1.84683 0.716743,-0.34107 1.30317,-0.7049 1.30317,-0.8085 0,-0.1036 -0.308625,-0.51964 -0.685837,-0.92452 -1.041355,-1.11777 -1.495983,-6.2128 -0.540509,-6.05755 2.209755,0.35907 3.772585,0.43212 3.166626,0.14803 -0.388057,-0.18193 -1.19689,-0.34194 -1.797407,-0.35558 -1.521788,-0.0346 -2.33298,-1.04147 -2.1947,-2.72422 0.08917,-1.08515 0.253111,-1.35752 0.817107,-1.35752 0.487235,0 0.740569,0.2729 0.818705,0.88195 0.136073,1.06062 0.961756,1.76388 2.070942,1.76388 1.009097,0 1.080648,-0.89108 0.11313,-1.40888 -0.385767,-0.20645 -0.799851,-0.76766 -0.920189,-1.24713 -0.195638,-0.77948 -0.40264,-0.87176 -1.955514,-0.87176 -1.251421,0 -1.796002,-0.1545 -1.948878,-0.55288 -0.433526,-1.12975 0.390898,-1.24891 6.901153,-0.99744 6.250824,0.24144 6.417945,0.26758 6.315139,0.98736 -0.09072,0.63515 -0.310833,0.72424 -1.561894,0.63216 -1.295183,-0.0953 -1.480481,-0.0108 -1.674908,0.76383 -0.127365,0.50747 -0.660675,1.0667 -1.277734,1.33983 -1.329266,0.5884 -1.379926,1.3567 -0.08898,1.34951 1.222235,-0.007 1.692011,-0.31555 2.004701,-1.31751 0.144764,-0.46389 0.531034,-0.79375 0.929492,-0.79375 0.895913,0 0.939707,1.85874 0.06442,2.73403 -0.496591,0.49659 -0.595064,1.10197 -0.50337,3.09462 0.09685,2.10469 1.46e-4,2.622 -0.642963,3.43958 -0.416328,0.52928 -1.02325,0.96934 -1.348717,0.97791 -0.32707,0.009 -0.0049,0.32548 0.720268,0.7084 2.195525,1.15933 2.663565,2.91721 1.173453,4.40732 -0.47625,0.47625 -1.258657,0.86591 -1.738688,0.86591 -0.867619,0 -1.981512,0.8085 -1.981512,1.43824 0,0.18122 1.031875,1.07181 2.293056,1.97908 1.261182,0.90727 2.293057,1.77953 2.293057,1.93836 0,0.15882 0.763407,0.28877 1.69646,0.28877 0.945507,0 1.999591,0.22927 2.38125,0.51795 0.775624,0.58665 3.880485,0.72492 4.212566,0.1876 0.119915,-0.19402 0.998332,-0.35277 1.952038,-0.35277 1.54006,0 1.787716,-0.10852 2.214171,-0.97014 0.323596,-0.65381 0.431067,-1.80841 0.329591,-3.54098 -0.09967,-1.70177 -0.0058,-2.74525 0.277649,-3.0868 0.300725,-0.36235 0.31033,-0.51597 0.03225,-0.51597 -0.23998,0 -0.395973,-0.69487 -0.395973,-1.76389 0,-0.97014 0.147108,-1.76389 0.326914,-1.76389 0.573664,0 0.611203,-1.20598 0.06447,-2.07124 -0.476432,-0.754 -0.469609,-0.87964 0.06919,-1.27362 0.830045,-0.60694 0.765926,-2.18476 -0.107792,-2.65236 -0.753967,-0.40351 -0.950867,-1.57064 -0.329739,-1.95452 0.21582,-0.13338 0.341868,-1.16887 0.296066,-2.43219 -0.04386,-1.20995 0.0063,-2.34511 0.111482,-2.52258 0.168331,-0.28402 0.413401,-6.19347 0.33524,-8.08377 -0.01606,-0.38805 -0.136591,-5.706178 -0.267877,-11.818053 -0.131286,-6.111874 -0.366347,-11.429999 -0.522356,-11.818055 -0.256048,-0.636897 -0.285827,-0.642619 -0.306009,-0.0588 -0.04331,1.252549 -0.905629,0.338981 -1.010613,-1.070669 -0.07178,-0.963789 -0.386874,-1.690991 -0.97014,-2.238937 -0.475107,-0.446341 -0.863833,-1.027568 -0.863833,-1.291614 0,-0.94792 1.134721,-2.21915 1.980851,-2.21915 0.819263,0 0.842502,0.08112 0.884391,3.086806 l 0.04302,3.086805 0.298465,-2.039613 c 0.164145,-1.12178 0.442912,-2.297746 0.619482,-2.613251 0.220559,-0.394123 0.08609,-1.051898 -0.429681,-2.101858 -0.601501,-1.224474 -0.890937,-1.488066 -1.456259,-1.326225 -0.657727,0.188296 -2.363911,0.267801 -13.405556,0.624673 -2.328333,0.07525 -4.550833,0.162985 -4.938887,0.19496 -0.388057,0.03198 -1.229633,-0.04692 -1.870168,-0.175328 -0.908036,-0.182028 -1.271439,-0.08805 -1.649499,0.426593 -0.467464,0.636333 -0.523301,0.637486 -1.553607,0.03209 -0.974466,-0.572588 -2.262685,-0.62804 -14.607808,-0.628801 -7.446501,-4.49e-4 -13.796013,0.09776 -14.110028,0.218254 -0.314015,0.120499 -0.776975,0.08683 -1.028802,-0.07483 -0.251826,-0.161653 -1.17224,-0.326342 -2.045365,-0.365975 -0.873125,-0.03963 -2.450113,-0.176853 -3.504417,-0.304931 -1.602353,-0.194658 -1.992223,-0.129884 -2.375824,0.39472 -0.510703,0.698428 -0.328505,2.957721 0.35142,4.35767 0.318085,0.654931 0.316329,0.884129 -0.0076,0.992931 -0.231635,0.0778 -0.332937,0.371344 -0.225116,0.652321 0.107821,0.280977 0.03387,0.707283 -0.164343,0.947347 -0.530812,0.6429 -0.849306,10.74594 -0.404093,12.818355 0.741546,3.45181 0.79793,5.311696 0.197513,6.515262 -0.7708,1.545103 -0.717228,2.651773 0.171382,3.540383 0.649702,0.6497 0.711115,0.98879 0.495168,2.73403 -0.135586,1.09579 -0.40929,2.19063 -0.608231,2.43299 -0.249742,0.30425 -0.223932,0.77328 0.08338,1.51521 0.331976,0.80145 0.34681,1.29025 0.05837,1.92331 -0.832748,1.82768 -1.174358,6.97517 -1.061747,15.99876 0.113477,9.09298 0.125362,9.22075 0.908731,9.76903 0.436562,0.30555 0.79375,0.74498 0.793751,0.97651 0,0.32171 4.138501,0.39919 17.550695,0.32858 9.652877,-0.0508 18.265064,-0.11752 19.138189,-0.14824 z m -17.786737,-1.80726 c -1.073799,-1.40782 -2.286254,-4.07872 -2.832913,-6.24057 -0.397232,-1.57091 -0.344474,-2.18253 0.557059,-6.45795 0.419955,-1.99159 0.407406,-2.07052 -0.468529,-2.94645 -0.796605,-0.79661 -0.995429,-0.84899 -1.730063,-0.45583 -0.643178,0.34422 -0.712674,0.4913 -0.308724,0.6534 1.185977,0.4759 2.108798,1.29927 2.108798,1.88154 0,0.78383 -1.076555,0.81182 -2.519748,0.0655 -0.590479,-0.30534 -1.110327,-0.50378 -1.155219,-0.44097 -0.04489,0.0628 -0.36612,1.46359 -0.713846,3.11282 -0.416285,1.97442 -0.62824,4.47466 -0.620556,7.32014 0.0064,2.37684 -0.109244,4.32153 -0.257027,4.32153 -0.147783,0 -0.571113,-0.33432 -0.940733,-0.74292 -0.583583,-0.64513 -0.666841,-1.27064 -0.632552,-4.75228 0.02172,-2.20515 0.229526,-4.76803 0.461797,-5.69528 0.23227,-0.92725 0.582596,-2.29636 0.778501,-3.04246 0.270308,-1.02946 0.244022,-1.4973 -0.109018,-1.94028 -1.036059,-1.30001 -1.214367,-1.99512 -0.902485,-3.51825 0.265394,-1.29609 0.549686,-1.66457 1.905237,-2.46944 l 1.593295,-0.94603 -0.225555,-2.99862 c -0.244575,-3.25147 0.18605,-4.57068 1.346615,-4.12533 0.479886,0.18415 0.580181,0.78053 0.580181,3.44985 0,3.17985 0.01164,3.22383 0.79375,2.99675 0.436563,-0.12675 1.627188,-0.32623 2.645834,-0.44328 1.539289,-0.17687 1.852082,-0.11912 1.852082,0.34194 0,0.30511 -0.3175,0.65552 -0.705554,0.77869 -0.841353,0.26703 -0.89446,0.63877 -0.176388,1.23472 0.29104,0.24154 0.529165,0.70753 0.529165,1.03552 0,0.69103 -1.761362,2.49225 -2.437097,2.49225 -0.253352,0 0.04491,0.57303 0.667115,1.28168 1.265042,1.4408 1.26482,2.36237 -0.0013,5.15166 -1.152366,2.53883 -0.801158,4.49891 1.604409,8.9542 0.673825,1.24798 1.22514,2.50319 1.22514,2.78937 0,0.90026 -0.986828,0.56699 -1.911741,-0.64563 z m -8.418916,-8.27086 c -0.08083,-0.53357 -0.146964,-0.097 -0.146964,0.97014 0,1.06715 0.06613,1.50372 0.146964,0.97014 0.08083,-0.53358 0.08083,-1.4067 0,-1.94028 z m 2.649904,-7.28884 c 0.14197,-0.74267 0.08252,-0.80063 -0.468308,-0.45663 -0.499843,0.31216 -0.796713,0.25069 -1.428964,-0.29588 -0.749447,-0.64788 -0.745277,-0.62126 0.06846,0.43711 1.044499,1.35851 1.610744,1.45617 1.828814,0.3154 z m 3.192764,-1.30901 c -0.217673,-0.21767 -0.319818,-0.59368 -0.226994,-0.83558 0.09283,-0.2419 -0.157705,-0.52519 -0.556734,-0.62954 -1.02086,-0.26696 -0.964705,0.86956 0.06824,1.38114 1.076976,0.53339 1.176584,0.54508 0.715487,0.084 z m -3.18493,-0.44809 c 0.626544,-0.47561 0.7899,-1.47103 0.405709,-2.47221 -0.157154,-0.40954 -0.374692,-0.4643 -0.844838,-0.21269 -0.856615,0.45844 -1.477822,2.26445 -0.957776,2.78449 0.49049,0.4905 0.632944,0.48034 1.396905,-0.0996 z m -2.669429,-0.98618 c -0.112616,-0.28142 -0.196209,-0.19783 -0.213137,0.21314 -0.01532,0.37189 0.06806,0.58025 0.185286,0.46302 0.117225,-0.11723 0.129758,-0.4215 0.02785,-0.67616 z m 7.019227,-1.3907 c 0.106513,-0.17234 0.09124,-0.63606 -0.03395,-1.03049 -0.171802,-0.5413 -0.415261,-0.66056 -0.99291,-0.48636 -1.160555,0.34998 -1.397381,0.71112 -0.978985,1.4929 0.379521,0.70914 1.573562,0.7234 2.005844,0.0239 z m -2.118617,-2.10801 c 0.589714,-0.23103 0.562999,-0.26789 -0.202708,-0.27968 -0.485071,-0.008 -1.190098,0.21951 -1.566733,0.50437 -0.59713,0.45165 -0.60842,0.51795 -0.08819,0.51795 0.328125,0 0.60775,0.19844 0.621387,0.44097 0.01363,0.24254 0.144544,0.13532 0.290904,-0.23826 0.146359,-0.37358 0.571764,-0.79899 0.945343,-0.94535 z m -1.372833,-1.44017 c -0.112615,-0.28142 -0.196207,-0.19783 -0.213135,0.21313 -0.01532,0.37189 0.06806,0.58025 0.185285,0.46303 0.117226,-0.11723 0.129757,-0.4215 0.02785,-0.67616 z m -0.10351,-4.34358 c 0.172889,-0.77291 0.140157,-0.91562 -0.121359,-0.52916 -0.196951,0.29104 -0.360522,0.83343 -0.363493,1.20532 -0.0072,0.90256 0.194704,0.62098 0.484852,-0.67616 z m 9.179045,16.7667 c -1.284435,-0.5194 -2.238375,-3.91046 -2.252342,-8.0066 -0.01013,-2.97083 0.188097,-3.64482 1.071996,-3.64482 0.565108,0 0.666221,0.34207 0.756008,2.55764 l 0.103647,2.55763 2.22236,-0.0351 c 1.222298,-0.0193 2.38288,-0.19565 2.579074,-0.39185 0.331769,-0.33176 0.418213,-1.89149 0.220739,-3.98273 -0.06846,-0.72496 0.0894,-0.90181 0.886857,-0.99357 l 0.970137,-0.11162 v 5.46001 5.46002 l -1.522489,0.73702 c -1.559793,0.75508 -3.724318,0.92444 -5.035987,0.39401 z m 3.383476,-0.71531 c 0.41389,-0.26748 0.322363,-0.34315 -0.42015,-0.34738 -0.522126,-0.003 -1.047433,0.15335 -1.16735,0.34738 -0.2784,0.45046 0.890461,0.45046 1.5875,0 z m 2.106824,-0.87008 c 0.23613,-0.28452 0.347472,-0.72109 0.247436,-0.97014 -0.117139,-0.29164 -0.191804,-0.23931 -0.209741,0.147 -0.01532,0.3299 -0.305665,0.76164 -0.645213,0.95941 -0.339547,0.19777 -0.438361,0.3644 -0.219583,0.3703 0.218777,0.006 0.590971,-0.22206 0.827101,-0.50657 z m -0.985258,-0.84154 c 0.409829,-0.39109 0.662885,-1.97283 0.381252,-2.38304 -0.193144,-0.28133 -0.937943,-0.28906 -2.664085,-0.0277 l -2.395984,0.36282 0.232611,1.086 c 0.127939,0.59731 0.310441,1.21762 0.405561,1.37847 0.186965,0.31615 3.646567,-0.0405 4.040645,-0.41657 z M 56.934116,119.334 c 0,-0.0555 -0.238125,-0.19228 -0.529167,-0.30397 -0.319106,-0.12245 -0.529166,-0.002 -0.529166,0.30397 0,0.30575 0.21006,0.42641 0.529166,0.30396 0.291042,-0.11168 0.529167,-0.24847 0.529167,-0.30396 z m 5.955485,-1.32292 c -0.0383,-1.37571 -0.06195,-1.41206 -0.286885,-0.44097 -0.134829,0.58208 -0.178435,1.25677 -0.09691,1.4993 0.280897,0.83561 0.425418,0.43707 0.383791,-1.05833 z m -0.07005,-3.8585 c -0.112615,-0.28142 -0.19621,-0.19783 -0.213136,0.21313 -0.01532,0.37189 0.06806,0.58025 0.185285,0.46303 0.117227,-0.11723 0.129757,-0.4215 0.02784,-0.67616 z m 11.753458,-4.0421 v -0.93324 l 3.56721,0.19656 c 1.961962,0.10811 3.72613,0.35549 3.920371,0.54973 0.815417,0.81541 -0.219622,1.12019 -3.804237,1.12019 h -3.683344 z m 3.96875,-0.0275 c -0.630592,-0.0782 -1.662467,-0.0782 -2.293057,0 -0.630589,0.0783 -0.114651,0.14229 1.146527,0.14229 1.261182,0 1.777119,-0.064 1.14653,-0.14229 z m 2.903254,-4.70626 c -0.127106,-0.40046 -0.184407,-2.74202 -0.127333,-5.20347 l 0.103764,-4.475341 h -2.454079 c -2.218897,0 -2.454082,-0.06762 -2.454082,-0.705556 0,-0.599189 0.265914,-0.719453 1.76389,-0.79774 2.948294,-0.154086 3.351387,-0.328811 3.351387,-1.452682 0,-0.958467 -0.08697,-1.011233 -1.990529,-1.207699 -1.094793,-0.112993 -2.144586,-0.359495 -2.332874,-0.547783 -0.617882,-0.617879 0.104696,-1.109374 1.630966,-1.109374 0.82459,0 1.771568,-0.199123 2.1044,-0.442494 0.568616,-0.415785 0.560054,-0.586161 -0.141814,-2.822224 -0.410832,-1.308849 -0.832001,-2.379726 -0.935939,-2.379726 -0.103937,0 -0.814557,0.565177 -1.579158,1.25595 -1.357686,1.226586 -2.042729,1.401853 -2.312773,0.591719 -0.07357,-0.220709 0.551508,-1.146218 1.389062,-2.056686 1.474584,-1.602952 1.522825,-1.729242 1.522825,-3.986384 0,-2.086333 0.07316,-2.330988 0.697061,-2.330988 0.764926,0 0.879068,0.28045 1.794751,4.409722 0.322699,1.455209 0.676338,2.795399 0.785865,2.978202 0.109527,0.182803 0.613894,-1.325322 1.120818,-3.351388 C 84.159268,78.633061 84.41063,78.059 84.9942,78.059 c 0.600104,0 0.678233,0.21255 0.592227,1.611168 -0.111553,1.813942 0.162595,2.174181 2.74491,3.60692 1.156806,0.641826 1.617786,1.130203 1.699127,1.8001 0.08616,0.709589 -0.0426,0.919312 -0.56443,0.919312 -0.668988,0 -3.317491,-1.720234 -3.766129,-2.446144 -0.127837,-0.206843 -0.36008,-0.376078 -0.516097,-0.376078 -0.331052,0 -1.298887,3.110895 -1.563984,5.027084 l -0.183017,1.322916 h 2.094487 c 1.817293,0 2.094489,0.08808 2.094489,0.665512 0,0.539681 -0.383524,0.723106 -2.028473,0.970137 -1.957361,0.29395 -2.032344,0.344821 -2.139019,1.451155 l -0.110546,1.14653 h 3.37374 c 3.354035,0 3.373741,0.0051 3.373741,0.872786 0,0.865691 -0.02611,0.872665 -3.20943,0.857581 -1.765189,-0.0084 -3.270311,0.04567 -3.344722,0.120081 -0.07441,0.07441 -0.197837,2.290948 -0.27428,4.92564 -0.07644,2.63469 -0.247563,4.96603 -0.380262,5.18074 -0.392007,0.63428 -1.192546,0.44673 -1.441522,-0.33773 z m 0.793316,-4.47534 c -0.07611,-0.72761 -0.138379,-0.13229 -0.138379,1.32292 0,1.4552 0.06227,2.05052 0.138379,1.32291 0.07611,-0.7276 0.07611,-1.91823 0,-2.64583 z m 0.577303,-6.515303 c -0.302972,-0.49022 -0.815404,0.06862 -0.5934,0.64715 0.164095,0.427625 0.271449,0.448143 0.490482,0.09374 0.154223,-0.249539 0.200536,-0.582938 0.102918,-0.74089 z m 2.781681,0.196247 c -0.242536,-0.09787 -0.639411,-0.09787 -0.881944,0 -0.242535,0.09786 -0.0441,0.177935 0.440971,0.177935 0.485071,0 0.683508,-0.08007 0.440973,-0.177935 z m 3.534492,0.0021 c -0.238842,-0.09663 -0.715092,-0.102518 -1.058334,-0.01307 -0.343244,0.08944 -0.147825,0.168508 0.434258,0.175697 0.582084,0.0072 0.862915,-0.06599 0.624076,-0.162627 z m -4.823775,-4.040053 1.377476,-0.214521 -1.531953,-0.05006 -1.531956,-0.05006 0.120846,-1.922772 c 0.09865,-1.569737 0.01183,-1.951177 -0.47288,-2.077459 -0.497448,-0.129601 -0.540353,-0.01431 -0.264583,0.711018 0.419539,1.103472 0.424953,2.83558 0.0097,3.092244 -0.183692,0.113528 -0.146206,0.565346 0.08819,1.063056 0.345469,0.733539 0.439716,0.773872 0.617694,0.264345 0.128455,-0.367752 0.744992,-0.684577 1.5875,-0.815787 z M 80.3362,81.242653 c -0.299045,-1.957195 -0.471524,-2.007684 -0.471524,-0.138025 0,0.866658 -0.198438,1.784912 -0.440974,2.040565 -0.353231,0.37234 -0.284744,0.370556 0.344231,-0.009 0.673561,-0.406425 0.754359,-0.67566 0.568267,-1.893574 z m 4.290976,0.873271 c 0.119914,-0.194027 0.04991,-0.352777 -0.15557,-0.352777 -0.205478,0 -0.373597,0.15875 -0.373597,0.352777 0,0.194028 0.07,0.352778 0.155567,0.352778 0.08556,0 0.253682,-0.15875 0.3736,-0.352778 z M 47.475105,102.71456 c -1.590842,-0.69482 -2.242709,-2.35288 -2.109986,-5.366844 0.09775,-2.219703 0.152323,-2.355413 0.947221,-2.355413 0.477901,0 1.013063,0.305808 1.234721,0.705556 0.613651,1.106686 0.976273,1.23748 2.860669,1.031819 2.938502,-0.320712 3.261254,-0.448273 3.495484,-1.381527 0.159104,-0.633923 0.459729,-0.885015 1.059603,-0.885015 1.419262,0 1.682377,2.173012 0.690954,5.706414 -0.462714,1.64911 -0.78282,2.15232 -1.6417,2.58079 -1.342695,0.66983 -4.96686,0.64999 -6.536966,-0.0358 z m 2.491652,-0.72393 c -0.242536,-0.0979 -0.639411,-0.0979 -0.881946,0 -0.242533,0.0979 -0.0441,0.17794 0.440973,0.17794 0.485068,0 0.683506,-0.0801 0.440973,-0.17794 z m 3.247387,0.0145 c 0.314086,-0.12053 0.820435,-0.70136 1.125217,-1.29075 0.657066,-1.270622 1.196234,-4.790691 0.773779,-5.05178 -0.162629,-0.100512 -0.295691,0.03299 -0.295691,0.296683 0,0.263686 -0.172558,0.651989 -0.383465,0.862896 -0.210905,0.210905 -0.426001,1.173049 -0.477989,2.138101 -0.108923,2.02194 -0.330739,2.49042 -1.379504,2.91357 -0.416709,0.16814 -0.572196,0.31576 -0.345533,0.32806 0.226666,0.0123 0.669099,-0.0763 0.983186,-0.19678 z m -6.152134,-1.87776 c -0.217066,-0.756863 -0.210775,-1.400414 0.01786,-1.827634 0.253529,-0.473726 0.204539,-0.93291 -0.173966,-1.630635 -0.515314,-0.949907 -0.527188,-0.922727 -0.541002,1.238427 -0.0078,1.215305 0.178303,2.517772 0.413494,2.894372 0.586351,0.9389 0.681458,0.7127 0.283606,-0.67453 z m 5.693021,0.25731 c 0.15825,-0.24941 0.290158,-0.810655 0.29313,-1.247218 0.0051,-0.748403 -0.136314,-0.79375 -2.475117,-0.79375 -2.625592,0 -3.34746,0.482016 -2.569321,1.715618 0.699421,1.10882 4.106185,1.3421 4.751308,0.32535 z m -1.024387,-2.980162 c -0.242533,-0.09786 -0.639408,-0.09786 -0.881943,0 -0.242536,0.09786 -0.0441,0.177938 0.440973,0.177938 0.485068,0 0.683506,-0.08007 0.44097,-0.177938 z m 18.774787,5.508112 C 70.37967,102.70914 70.330616,98.621326 70.39642,93.828598 l 0.11964,-8.714053 -2.557637,0.104949 c -2.270088,0.09315 -2.55764,0.03328 -2.55764,-0.532502 0,-1.510134 1.526921,-1.720433 11.024306,-1.518354 0.145521,0.0031 0.264584,0.247684 0.264584,0.543528 0,0.624525 -1.37382,1.225991 -2.800305,1.225991 -0.932553,0 -1.002983,0.108325 -1.204148,1.852083 -0.117518,1.018645 -0.306176,4.788957 -0.419241,8.378472 -0.113064,3.589515 -0.278264,6.883578 -0.367106,7.320138 -0.167183,0.82152 -0.9925,1.07252 -1.393442,0.42378 z m 0.788763,-3.246001 c -0.08409,-0.436563 -0.152884,-0.07937 -0.152884,0.793751 0,0.87312 0.0688,1.23031 0.152884,0.79375 0.08409,-0.43656 0.08409,-1.15094 0,-1.587501 z m 0.348282,-10.400232 c -0.08944,-0.343241 -0.168508,-0.147825 -0.175697,0.434258 -0.0072,0.582084 0.06599,0.862918 0.162626,0.624076 0.09663,-0.238842 0.102516,-0.715092 0.0131,-1.058334 z m 0.461084,-4.681018 c 0,-0.194028 -0.15875,-0.352778 -0.352777,-0.352778 -0.194027,0 -0.352777,0.15875 -0.352777,0.352778 0,0.194028 0.15875,0.352778 0.352777,0.352778 0.194027,0 0.352777,-0.15875 0.352777,-0.352778 z m -3.976098,-0.565915 c -0.117229,-0.117224 -0.4215,-0.129758 -0.676158,-0.02785 -0.281422,0.112615 -0.197832,0.196209 0.213137,0.213136 0.371886,0.01532 0.580245,-0.06806 0.463021,-0.185286 z m 5.475404,-0.0205 c -0.242535,-0.09786 -0.63941,-0.09786 -0.881943,0 -0.242536,0.09787 -0.0441,0.177937 0.44097,0.177937 0.485071,0 0.683509,-0.08007 0.440973,-0.177937 z m 0.352965,16.578946 c -0.47494,-1.160037 -0.318672,-14.138306 0.176202,-14.63379 0.981215,-0.982428 1.227659,0.282996 1.292627,6.637287 0.03538,3.460311 -0.02678,6.755858 -0.138152,7.323432 -0.239811,1.222261 -0.957257,1.585151 -1.330677,0.673071 z m 0.521853,-8.135354 c -0.07637,-0.731933 -0.140131,-0.219535 -0.141697,1.138659 -0.0013,1.358194 0.06092,1.957049 0.138851,1.330785 0.07793,-0.626263 0.07921,-1.737514 0.0028,-2.469444 z m -0.01429,-3.182871 c -0.08873,-0.33955 -0.161335,-0.06174 -0.161335,0.61736 0,0.679098 0.0726,0.956911 0.161335,0.61736 0.08873,-0.339547 0.08873,-0.895172 0,-1.23472 z m -8.004281,10.693416 c 0,-0.279 0.233807,-1.515427 0.519568,-2.747613 0.291105,-1.255212 0.538067,-4.173416 0.561633,-6.636473 0.04475,-4.676966 0.292164,-5.511908 1.44974,-4.892391 0.640966,0.343035 0.677714,0.640279 0.489746,3.961336 -0.266917,4.715976 -0.857348,8.648224 -1.479328,9.852279 -0.527822,1.021781 -1.541359,1.326141 -1.541359,0.462862 z m 2.00836,-7.864481 c -0.08944,-0.343241 -0.168508,-0.147825 -0.175697,0.434258 -0.0072,0.582084 0.06599,0.862918 0.162626,0.624076 0.09663,-0.238842 0.102516,-0.715092 0.0131,-1.058334 z m -27.97936,1.510785 c -0.125531,-0.327131 -0.08451,-0.738516 0.09116,-0.914189 0.175672,-0.17567 2.419104,-0.363437 4.985407,-0.417258 4.098512,-0.08595 4.66604,-0.170051 4.666326,-0.691447 5.29e-4,-0.849344 -1.075629,-1.080984 -4.540054,-0.977294 -5.318976,0.159198 -6.042952,0.07459 -6.042952,-0.706186 0,-0.837594 0.765313,-0.988303 6.173611,-1.215726 2.134307,-0.08975 3.936746,-0.174022 4.005424,-0.187275 0.2842,-0.05484 -0.410467,-10.465588 -0.72435,-10.855645 -0.438195,-0.544532 0.670372,-2.492976 1.583217,-2.782701 0.360076,-0.114285 1.029597,-0.113693 1.487821,0.0013 1.017542,0.255396 1.161167,1.136099 0.781724,4.793501 -0.150971,1.455209 -0.230346,3.995209 -0.176387,5.644445 l 0.09811,2.998619 5.175421,0.17639 c 2.846482,0.09701 5.287031,0.288605 5.423442,0.425757 0.136409,0.137152 0.154017,0.494339 0.03912,0.79375 -0.214413,0.558747 -0.185089,0.555852 -7.123639,0.702979 -2.994469,0.06349 -3.690735,0.270436 -3.690735,1.096944 0,0.419288 0.898093,0.508347 5.126346,0.508347 4.329044,0 5.159351,0.08599 5.338514,0.552878 0.116686,0.304086 0.07201,0.685078 -0.09927,0.846654 -0.171284,0.161576 -5.270109,0.407887 -11.330722,0.547357 C 41.585475,94.17419 40.698348,94.147279 40.48811,93.599409 Z m 2.429799,-0.425982 c -0.238842,-0.09663 -0.715092,-0.102516 -1.058333,-0.01307 -0.343242,0.08944 -0.147826,0.168509 0.434258,0.175697 0.582083,0.0072 0.862917,-0.06599 0.624075,-0.162627 z m 9.147872,-0.544711 c -0.709618,-0.709618 -0.525484,-2.438228 0.282223,-2.64945 0.847931,-0.22174 0.914067,-0.652272 0.145505,-0.947198 -0.488519,-0.18746 -0.546849,-1.034047 -0.456676,-6.628162 0.109577,-6.798096 -0.0331,-7.393539 -1.461781,-6.1006 -0.464772,0.420614 -0.580773,0.78751 -0.373943,1.18273 0.164914,0.315127 0.414311,3.066135 0.554214,6.113351 l 0.254368,5.540393 -0.830151,0.188256 c -0.456581,0.103539 -1.623899,0.240811 -2.594036,0.305046 -1.513975,0.100245 -1.428263,0.125802 0.604949,0.18038 2.013153,0.05404 2.428711,0.175464 2.767597,0.808675 0.219316,0.409797 0.326292,1.124172 0.23772,1.5875 -0.127632,0.667663 -0.01019,0.842412 0.566153,0.842412 0.565594,0 0.633116,-0.09408 0.303858,-0.423333 z m 1.950568,0.210195 c -0.117229,-0.117223 -0.421497,-0.129757 -0.676159,-0.02785 -0.281423,0.112615 -0.197827,0.19621 0.213136,0.213135 0.371885,0.01532 0.580247,-0.06806 0.463023,-0.185285 z m 4.240681,-0.03004 c -0.339548,-0.08873 -0.895173,-0.08873 -1.234723,0 -0.339548,0.08873 -0.06174,0.161332 0.617363,0.161332 0.679095,0 0.956908,-0.0726 0.61736,-0.161332 z m 3.531891,7.93e-4 c -0.337288,-0.0883 -0.972288,-0.0915 -1.41111,-0.0071 -0.438825,0.08438 -0.162865,0.156625 0.613246,0.160541 0.776113,0.0039 1.135152,-0.06512 0.797864,-0.153424 z M 45.027867,89.628096 c -0.436562,-0.08409 -1.150937,-0.08409 -1.5875,0 -0.436562,0.08409 -0.07937,0.152884 0.79375,0.152884 0.873125,0 1.230313,-0.0688 0.79375,-0.152884 z m 23.969672,-8.150727 c -1.862071,-0.134172 -2.323928,-0.922728 -1.094181,-1.868157 0.626088,-0.481339 1.462071,-0.654629 3.185966,-0.660414 3.523846,-0.01185 4.542015,0.269481 4.542015,1.25497 0,0.655005 -0.232775,0.858521 -1.146529,1.002427 -1.836256,0.289189 -3.853545,0.388874 -5.487271,0.271156 z m 5.831946,-1.264194 c 0.237651,-0.23765 -5.165902,-0.626518 -5.535107,-0.398335 -0.983774,0.608005 -0.109225,0.849247 2.520635,0.695312 1.58755,-0.09293 2.944061,-0.226565 3.014472,-0.296977 z m 8.210188,57.503005 c 0,-0.0763 -0.24637,-0.23319 -0.547492,-0.34874 -0.313944,-0.12047 -0.455549,-0.0613 -0.331957,0.13864 0.207174,0.33522 0.879449,0.49581 0.879449,0.2101 z m -3.880557,-3.52233 c 0,-0.0733 -0.277812,-0.35107 -0.61736,-0.61736 -0.559528,-0.43881 -0.572005,-0.42633 -0.133197,0.13319 0.46086,0.58764 0.750557,0.77452 0.750557,0.48417 z m -0.900419,-3.37417 c 0.341026,-0.37683 0.536913,-0.89277 0.435305,-1.14653 -0.127444,-0.31829 -0.193378,-0.28331 -0.21259,0.11278 -0.01532,0.31579 -0.265977,0.77179 -0.557019,1.01333 -0.677135,0.56198 -1.568418,-0.0892 -1.62842,-1.18972 -0.03457,-0.63391 -0.06678,-0.65053 -0.207312,-0.10695 -0.155035,0.59969 0.760201,2.00223 1.306565,2.00223 0.133885,0 0.522447,-0.30831 0.863471,-0.68514 z m -0.301633,-2.41404 c 0.318696,-1.76687 0.429434,-1.90042 1.223462,-1.47547 0.450207,0.24094 0.684147,0.73856 0.684147,1.45526 0,0.9281 0.07823,1.02419 0.529166,0.64995 0.858653,-0.71262 0.621517,-1.64004 -0.54265,-2.12225 -0.589499,-0.24418 -1.230085,-0.73969 -1.423521,-1.10114 -0.494157,-0.92334 -2.300306,-0.89027 -2.545303,0.0466 -0.101224,0.38708 -0.476924,0.81178 -0.834895,0.94377 -1.623116,0.59849 -2.235189,1.22698 -1.866276,1.9163 0.203092,0.37948 0.734968,0.66949 1.227834,0.66949 0.758565,0 0.869532,-0.15757 0.869532,-1.23472 0,-0.98653 0.137483,-1.23472 0.683942,-1.23472 0.539912,0 0.733957,0.33355 0.921459,1.5839 0.274474,1.83033 0.732944,1.7889 1.073103,-0.097 z m 2.236867,-5.23102 c 0.08408,-0.0815 -0.02625,-0.32735 -0.245192,-0.54629 -0.28611,-0.28611 -1.122818,-0.30259 -2.975092,-0.0586 -2.343994,0.30876 -2.497277,0.37657 -1.695087,0.74982 0.792847,0.36891 4.498102,0.25966 4.915371,-0.14493 z m -4.474398,-1.44376 c -0.436563,-0.0841 -1.150938,-0.0841 -1.5875,0 -0.436563,0.0841 -0.07937,0.15288 0.79375,0.15288 0.873125,0 1.230312,-0.0688 0.79375,-0.15288 z m 5.909027,-1.53575 c 0,-0.59353 -0.137459,-0.9942 -0.305467,-0.89036 -0.284186,0.17563 -0.129159,1.96952 0.170206,1.96952 0.07439,0 0.135261,-0.48562 0.135261,-1.07916 z m -1.229265,0.38244 c -0.196252,-0.31756 -5.794126,-0.1309 -6.149671,0.20505 -0.08084,0.0764 1.317586,0.13889 3.107627,0.13889 2.024192,0 3.174251,-0.13003 3.042044,-0.34394 z m -6.996414,-1.13332 c -0.112615,-0.28142 -0.19621,-0.19783 -0.213135,0.21314 -0.01532,0.37188 0.06806,0.58024 0.185285,0.46302 0.117226,-0.11723 0.129757,-0.4215 0.02783,-0.67616 z m 4.406524,-2.34468 c -0.294502,-0.86835 -0.651097,0.25613 -0.45947,1.4489 l 0.182875,1.13832 0.21809,-1.05834 c 0.119952,-0.58208 0.146281,-1.27008 0.05851,-1.52888 z m 2.937211,1.35249 c 0.127204,-0.20581 -0.231521,-0.35277 -0.861123,-0.35277 -0.593535,0 -1.079154,0.15875 -1.079154,0.35277 0,0.19403 0.387504,0.35278 0.861124,0.35278 0.473617,0 0.959236,-0.15875 1.079153,-0.35278 z m 20.183964,-2.52175 c 0.71499,-0.76818 0.80122,-1.06192 0.48515,-1.6525 -0.55057,-1.02874 -0.48028,-1.75491 0.33235,-3.43358 0.60064,-1.24075 0.66101,-1.72867 0.37267,-3.01199 -0.18925,-0.84226 -0.55975,-1.69455 -0.82334,-1.89397 -0.70621,-0.5343 -1.368309,-4.00247 -1.11573,-5.84433 0.15621,-1.139092 0.0814,-1.715844 -0.259133,-1.998511 -0.400986,-0.332825 -0.471598,0.948049 -0.434909,7.889151 0.02971,5.61675 0.171765,8.41444 0.440973,8.68365 0.492159,0.49216 0.517659,1.55106 0.04439,1.84356 -0.194027,0.11991 -0.340243,0.48647 -0.324924,0.81457 0.02257,0.48386 0.06422,0.49659 0.220401,0.0674 0.105899,-0.29104 0.583852,-0.94958 1.062102,-1.46342 z m -23.006187,-0.65324 c 0.119917,-0.19403 0.04991,-0.35278 -0.155567,-0.35278 -0.205478,0 -0.3736,0.15875 -0.3736,0.35278 0,0.19402 0.07001,0.35277 0.15557,0.35277 0.08556,0 0.253683,-0.15875 0.373597,-0.35277 z m 0.676704,-1.27247 c 0.921364,-0.35356 0.630586,-0.8442 -0.500314,-0.8442 -1.011468,0 -1.328883,0.31741 -0.823148,0.82315 0.291306,0.29131 0.606137,0.29631 1.323462,0.0211 z m 2.096706,-1.02059 c 0.122449,-0.3191 0.0019,-0.52917 -0.303964,-0.52917 -0.305752,0 -0.426413,0.21007 -0.303964,0.52917 0.111686,0.29104 0.248468,0.52917 0.303964,0.52917 0.05549,0 0.192278,-0.23813 0.303964,-0.52917 z m -4.537297,-0.17639 c 0.119914,-0.19403 0.04991,-0.35278 -0.15557,-0.35278 -0.205478,0 -0.373597,0.15875 -0.373597,0.35278 0,0.19403 0.07,0.35278 0.155567,0.35278 0.08556,0 0.253683,-0.15875 0.3736,-0.35278 z m -1.847234,-0.60111 c -0.433895,-0.0837 -1.227645,-0.0859 -1.763889,-0.005 -0.536242,0.0811 -0.18124,0.1496 0.7889,0.15225 0.97014,0.002 1.408885,-0.0637 0.974989,-0.14743 z M 29.796279,96.600592 c 0.01433,-0.884547 0.07025,-5.815145 0.124283,-10.95688 0.10236,-9.741414 0.332826,-13.012634 1.01549,-14.413787 0.411354,-0.844296 3.057966,-2.872323 3.748433,-2.872323 0.207576,0 0.37741,0.220107 0.37741,0.489126 0,0.748909 2.137704,0.924466 3.153381,0.258969 l 0.864066,-0.566158 -1.391362,-0.247027 c -0.765249,-0.135865 -2.274474,-0.256176 -3.353833,-0.267357 -1.70012,-0.01761 -2.083433,0.109361 -2.867312,0.949808 -1.069281,1.146445 -1.876243,2.575766 -1.765963,3.127938 0.04327,0.216652 -0.161549,0.593277 -0.455152,0.836946 -0.459421,0.381286 -0.53226,2.268582 -0.522605,13.540811 0.0099,11.593685 0.0707,13.019138 0.529167,12.412988 0.284871,-0.376632 0.529669,-1.408507 0.543997,-2.293054 z M 100.21591,83.894645 c -0.691209,-6.589891 -1.654017,-9.925229 -1.654017,-5.729822 0,1.222964 0.155525,2.187223 0.352777,2.187223 0.194029,0 0.352779,0.46688 0.352779,1.037513 0,0.570633 -0.15875,1.135626 -0.352779,1.255542 -0.531654,0.328581 -0.424863,1.904319 0.24856,3.667662 l 0.601342,1.574584 0.309698,-1.19519 c 0.17034,-0.657355 0.23408,-1.916235 0.14164,-2.797512 z m -5.718991,-8.766678 c -0.218209,-0.533479 -0.272859,-0.521942 -0.515405,0.108801 -0.157597,0.409829 -0.104757,0.913411 0.126058,1.201465 0.334618,0.417588 0.416017,0.400405 0.515405,-0.108802 0.06492,-0.33259 0.0082,-0.873249 -0.126058,-1.201464 z M 27.572595,117.82774 c -0.0898,-0.34336 -0.0875,-2.32773 0.005,-4.40972 0.14173,-3.18689 0.25866,-3.78457 0.73947,-3.78002 1.462069,0.0138 2.348144,1.98426 1.781217,3.96102 -0.180483,0.62931 -0.328151,1.72758 -0.328151,2.44059 0,0.71302 -0.09636,1.5475 -0.214133,1.85441 -0.293974,0.76609 -1.778813,0.71647 -1.983503,-0.0663 z m 1.139301,-2.57151 c 0,-0.18258 -0.15875,-0.33196 -0.352781,-0.33196 -0.19402,0 -0.35277,0.24749 -0.35277,0.54999 0,0.30249 0.15875,0.45187 0.35277,0.33195 0.194031,-0.11991 0.352781,-0.36741 0.352781,-0.54998 z m 0.501715,-1.93569 c 0.249416,-0.99375 -0.0176,-1.69408 -0.526092,-1.37982 -0.419774,0.25943 -0.432054,2.27799 -0.01387,2.27799 0.172993,0 0.415975,-0.40417 0.539958,-0.89817 z m -1.379956,-4.74027 c -0.35309,-0.57133 0.21528,-2.82822 0.71226,-2.82822 1.486309,0 1.990702,1.03743 1.211902,2.49263 -0.384749,0.71891 -1.560512,0.92397 -1.924162,0.33559 z m 1.119228,-1.48326 c -0.112616,-0.28142 -0.196209,-0.19783 -0.213137,0.21314 -0.01532,0.37188 0.06806,0.58025 0.185286,0.46302 0.117225,-0.11723 0.129758,-0.4215 0.02785,-0.67616 z M 81.562462,69.394028 c -0.08539,-0.256166 -4.028181,-0.358718 -12.464815,-0.324209 -17.817022,0.07288 -18.160753,0.05273 -18.160753,-1.064669 0,-0.527706 0.395946,-0.687182 2.204863,-0.888058 3.209538,-0.356412 28.600645,-0.170487 28.998332,0.212339 0.184325,0.177438 0.779637,0.322615 1.322917,0.322615 1.149403,0 1.350319,0.881732 0.370417,1.625584 -0.745527,0.565935 -2.098009,0.635257 -2.270961,0.116398 z m 1.300821,-0.683648 c 0.119917,-0.194028 0.04991,-0.352778 -0.155567,-0.352778 -0.205481,0 -0.3736,0.15875 -0.3736,0.352778 0,0.194027 0.07001,0.352777 0.155567,0.352777 0.08556,0 0.253683,-0.15875 0.3736,-0.352777 z m -29.36875,-0.586416 c -0.242535,-0.09786 -0.63941,-0.09786 -0.881943,0 -0.242535,0.09786 -0.0441,0.177936 0.440971,0.177936 0.48507,0 0.683507,-0.08007 0.440972,-0.177936 z m 7.592134,-0.273543 c 0.235826,-0.235826 -0.171352,-0.273287 -2.741441,-0.252224 -2.799963,0.02295 -2.82222,0.02568 -2.82222,0.345754 0,0.318076 5.240147,0.229985 5.563661,-0.09353 z m 7.031172,-0.06835 c -0.261088,-0.261089 -3.797792,-0.225212 -4.06423,0.04123 -0.09984,0.09984 0.823889,0.18153 2.05273,0.18153 1.228842,0 2.134016,-0.100241 2.0115,-0.222758 z m 5.49174,-0.0086 c -0.23884,-0.09663 -0.71509,-0.102516 -1.058334,-0.01307 -0.343241,0.08944 -0.147822,0.168509 0.434261,0.175698 0.582083,0.0072 0.862915,-0.06599 0.624073,-0.162626 z m -28.602746,0.319596 c 0.06539,-0.339549 0.432043,-0.617361 0.814784,-0.617361 0.382741,0 0.749395,0.277812 0.814787,0.617361 0.08905,0.462403 -0.115461,0.617361 -0.814787,0.617361 -0.699325,0 -0.903836,-0.154958 -0.814784,-0.617361 z"
       style="fill:none;fill-opacity:1;stroke:#000000;stroke-width:0.26458332;stroke-linecap:round;stroke-linejoin:round;stroke-miterlimit:4;stroke-dasharray:none;stroke-opacity:1" />
  </g>
</svg>
